<svg width="60" height="60" viewBox="0 0 60 60" fill="none" xmlns="http://www.w3.org/2000/svg">
<path d="M30 0C30.9946 0 31.9484 0.395089 32.6517 1.09835C33.3549 1.80161 33.75 2.75544 33.75 3.75V26.25H56.25C57.2446 26.25 58.1984 26.6451 58.9017 27.3484C59.6049 28.0516 60 29.0054 60 30C60 30.9946 59.6049 31.9484 58.9017 32.6517C58.1984 33.3549 57.2446 33.75 56.25 33.75H33.75V56.25C33.75 57.2446 33.3549 58.1984 32.6517 58.9017C31.9484 59.6049 30.9946 60 30 60C29.0054 60 28.0516 59.6049 27.3484 58.9017C26.6451 58.1984 26.25 57.2446 26.25 56.25V33.75H3.75C2.75544 33.75 1.80161 33.3549 1.09835 32.6517C0.395089 31.9484 0 30.9946 0 30C0 29.0054 0.395089 28.0516 1.09835 27.3484C1.80161 26.6451 2.75544 26.25 3.75 26.25H26.25V3.75C26.25 2.75544 26.6451 1.80161 27.3484 1.09835C28.0516 0.395089 29.0054 0 30 0Z" fill="#000"/>
</svg>
